<?xml version="1.0" encoding="UTF-8" standalone="no"?>
<!-- Created with Inkscape (http://www.inkscape.org/) -->

<svg
   width="265mm"
   height="265mm"
   viewBox="0 0 265 265"
   version="1.1"
   id="svg1"
   xml:space="preserve"
   xmlns="http://www.w3.org/2000/svg"
   xmlns:svg="http://www.w3.org/2000/svg"><defs
     id="defs1" /><path
     style="fill:#ffffff;fill-opacity:1"
     d="m 130.88371,258.87802 c -1.04895,-0.32633 -12.94617,-6.41148 -43.891351,-22.4494 -2.134306,-1.10615 -8.008056,-4.11999 -13.052778,-6.69743 -5.044722,-2.57744 -9.330972,-4.79982 -9.525,-4.93863 -0.194028,-0.13881 -2.148898,-1.17525 -4.344156,-2.30319 -4.1307,-2.1224 -5.004455,-2.97858 -5.004455,-4.90379 0,-1.63521 1.785732,-2.8905 10.34634,-7.27299 l 8.406062,-4.30337 -1.350506,-0.78571 c -0.742779,-0.43213 -4.637451,-2.48168 -8.654827,-4.55455 -4.252291,-2.19407 -7.605738,-4.15203 -8.025694,-4.68592 -0.962962,-1.22421 -0.931366,-3.02256 0.07238,-4.1194 0.436562,-0.47706 2.936875,-1.97707 5.55625,-3.33337 2.619375,-1.3563 6.431585,-3.33324 8.471578,-4.3932 l 3.709078,-1.92722 -8.580452,-4.51932 c -4.939788,-2.60179 -8.885295,-4.90598 -9.298918,-5.43062 -0.991299,-1.25736 -0.70926,-3.45795 0.568936,-4.43908 0.966065,-0.74154 8.054432,-4.55683 14.268679,-7.68006 l 3.670846,-1.84494 1.140203,-2.46944 c 0.627111,-1.3582 2.205793,-4.8507 3.508182,-7.76111 1.30239,-2.91042 3.724096,-8.30792 5.381571,-11.99445 4.456096,-9.91117 4.500286,-10.01035 5.737555,-12.87639 0.628213,-1.45521 1.440326,-3.27096 1.804696,-4.03501 0.36437,-0.76405 0.662491,-1.43874 0.662491,-1.49931 0,-0.0606 -4.976936,-0.11012 -11.059858,-0.11012 -6.976683,0 -11.461423,-0.13999 -12.147556,-0.37918 -2.682477,-0.93511 -2.97562,-4.83015 -0.461372,-6.13031 0.896486,-0.4636 2.997559,-0.54607 13.911573,-0.54607 h 12.855604 l 0.535841,-1.32291 c 0.294713,-0.72761 1.161642,-2.6723 1.92651,-4.32153 0.764868,-1.64924 3.965268,-8.731926 7.111998,-15.739307 l 5.72132,-12.740692 -1.7531,-3.057427 c -3.89519,-6.793263 -4.62544,-15.225897 -1.94481,-22.457848 2.77217,-7.478922 9.49999,-13.762309 17.49483,-16.339158 0.57182,-0.184307 0.61736,-1.076561 0.61736,-12.097344 v -11.89836 l 0.91192,-1.3159099 c 2.14867,-3.1005262 7.37296,-3.6650273 10.39388,-1.123091 1.91923,1.6149255 1.9109,1.5580737 2.09975,14.3325729 l 0.17639,11.931495 2.01598,0.680324 c 7.40903,2.500293 13.67012,8.98935 16.43588,17.034323 0.67757,1.970887 0.90264,3.479905 1.03352,6.929307 0.20843,5.493275 -0.51597,8.779868 -3.06873,13.922624 l -1.7451,3.515678 2.66614,6.185711 c 1.46638,3.40214 2.94699,6.82071 3.29026,7.596821 2.00002,4.522016 3.35412,7.586792 3.93561,8.907639 0.36303,0.824618 0.9628,2.173992 1.33282,2.998612 0.37002,0.82462 1.65416,3.71897 2.85364,6.4319 1.19949,2.71293 2.32622,5.20416 2.50385,5.53606 0.29688,0.55474 0.55784,0.51693 3.23177,-0.46826 9.50249,-3.50113 10.77504,-3.69092 12.24213,-1.82581 0.78075,0.99256 0.97022,3.2239 0.36911,4.34707 -0.19345,0.36147 -2.74452,2.43922 -5.66905,4.61723 -6.05746,4.51122 -5.74199,3.75899 -3.55682,8.48106 1.2292,2.65627 3.87603,8.54898 8.93329,19.88839 3.70511,8.30762 4.14267,9.01315 6.28876,10.14017 1.06715,0.56041 4.76429,2.47689 8.21586,4.25883 3.45157,1.78194 6.74942,3.63676 7.32856,4.12183 1.4426,1.20828 1.84766,2.79122 1.09234,4.2688 -0.59008,1.15434 -2.12607,2.04255 -14.4319,8.34544 -1.79476,0.91926 -3.26319,1.75927 -3.26319,1.8667 0,0.10743 1.46843,0.93757 3.26319,1.84475 4.90256,2.47806 11.83201,6.14867 13.178,6.98053 1.80868,1.11783 2.22057,3.95377 0.78112,5.37808 -0.25595,0.25326 -2.84662,1.70462 -5.75704,3.22525 -2.91041,1.52062 -6.79979,3.55267 -8.64305,4.51565 -1.84327,0.96299 -3.40209,1.7977 -3.46407,1.85492 -0.062,0.0572 2.16053,1.25047 4.93889,2.65168 2.77836,1.4012 5.21032,2.66448 5.40435,2.80728 0.19402,0.1428 1.70215,0.94318 3.35138,1.77862 4.08244,2.068 4.93889,2.89825 4.93889,4.78778 0,1.83605 -0.81894,2.60956 -5.02311,4.74446 -1.60291,0.81396 -4.66064,2.39184 -6.79494,3.5064 -2.13431,1.11456 -6.89681,3.5784 -10.58334,5.4752 -3.68652,1.8968 -13.05277,6.73519 -20.81389,10.75197 -7.76111,4.01678 -17.12736,8.85672 -20.81388,10.75544 -3.68653,1.89871 -7.65528,3.9778 -8.81945,4.62019 -2.53436,1.39847 -3.47307,1.59452 -5.14476,1.07444 z m 22.25448,-17.85574 c 4.75368,-2.4664 12.13556,-6.28305 16.40417,-8.48143 4.26861,-2.19839 9.90797,-5.11848 12.53191,-6.4891 2.62394,-1.37062 7.18728,-3.75481 10.14075,-5.29822 2.95348,-1.5434 5.25162,-2.91146 5.10698,-3.04013 -0.22307,-0.19844 -3.23582,-1.79087 -13.17543,-6.96406 l -1.62358,-0.84501 -16.54448,8.54753 c -9.09947,4.70114 -18.13198,9.38442 -20.07226,10.4073 -10.02158,5.28316 -12.64692,6.51862 -13.85203,6.51862 -0.8472,0 -2.60611,-0.71778 -5.51406,-2.25018 -2.34851,-1.2376 -7.12752,-3.71755 -10.62002,-5.511 -3.4925,-1.79346 -8.255,-4.25333 -10.58334,-5.46639 -2.32833,-1.21306 -7.24958,-3.7546 -10.936107,-5.64786 -3.686528,-1.89326 -8.002653,-4.1358 -9.591389,-4.98343 -1.588736,-0.84763 -3.054607,-1.54114 -3.257492,-1.54114 -0.416747,0 -15.293378,7.7945 -15.127511,7.92595 0.05882,0.0466 2.964447,1.55689 6.456947,3.35617 3.4925,1.79928 7.77875,4.0252 9.525,4.94649 1.74625,0.92129 5.87375,3.0655 9.172222,4.76493 14.77767,7.61368 18.61088,9.59839 31.04445,16.07375 3.10444,1.61679 6.51756,3.36701 7.58472,3.88939 l 1.94028,0.94979 6.17361,-3.18881 c 3.39548,-1.75384 10.06298,-5.20676 14.81666,-7.67316 z m -15.74631,-15.65281 c 2.74263,-1.42999 7.68534,-3.99219 10.98381,-5.69379 3.29848,-1.70159 7.58473,-3.92551 9.525,-4.94204 1.94028,-1.01652 5.67091,-2.95919 8.29028,-4.31703 24.65687,-12.78173 30.90856,-16.0513 31.16072,-16.29677 0.16097,-0.15669 -1.38685,-1.17713 -3.43958,-2.26764 -2.05274,-1.09052 -5.36111,-2.84783 -7.35194,-3.90514 l -3.61969,-1.92238 -11.99073,6.1782 c -15.96212,8.22444 -25.12312,12.97308 -31.64599,16.40381 -2.96557,1.55975 -5.97215,2.92208 -6.68127,3.02739 -1.14303,0.16975 -2.48394,-0.41888 -11.81806,-5.18783 -5.7908,-2.95861 -12.43374,-6.37083 -14.76207,-7.58272 -15.600548,-8.12 -24.317601,-12.52186 -24.797175,-12.52186 -0.517885,0 -14.327335,7.30633 -14.436003,7.63783 -0.05403,0.16481 1.845709,1.28661 4.221638,2.49287 2.37593,1.20626 6.859872,3.51963 9.964317,5.14083 3.104444,1.6212 8.501944,4.42541 11.994444,6.23158 3.4925,1.80616 7.619999,3.95547 9.172219,4.77623 1.55223,0.82077 6.31473,3.29054 10.58334,5.48839 4.26861,2.19785 10.30111,5.31249 13.40555,6.92142 3.10445,1.60893 5.78173,2.92832 5.94953,2.93197 0.16779,0.004 2.54904,-1.16334 5.29166,-2.59332 z m 5.63278,-26.54834 c 5.85348,-3.03171 12.62708,-6.54307 15.05242,-7.80303 2.42535,-1.25995 8.77535,-4.52765 14.11111,-7.26154 13.97994,-7.16293 25.2298,-13.20978 25.18403,-13.53651 -0.0218,-0.1554 -0.33926,-0.44263 -0.70555,-0.63828 -1.06973,-0.57139 -14.93508,-7.74373 -21.65625,-11.20246 -3.39549,-1.74732 -6.64987,-3.4529 -7.23195,-3.79017 -0.58208,-0.33728 -3.43958,-1.8441 -6.35,-3.34849 -6.16981,-3.18918 -12.03537,-6.27053 -14.2875,-7.50565 -0.87312,-0.47884 -4.63259,-2.44632 -8.35437,-4.37216 l -6.76687,-3.50154 -2.58174,1.29664 c -1.41996,0.71316 -8.45549,4.42499 -15.63452,8.24853 -19.464128,10.36655 -32.263931,17.05627 -46.148233,24.11904 -0.74,0.37643 -1.21625,0.79999 -1.058333,0.94125 0.27415,0.24523 1.595766,0.97267 7.519066,4.13862 1.455208,0.77779 7.567083,3.91428 13.581945,6.96997 6.014861,3.05569 12.682365,6.47014 14.816665,7.58765 2.13431,1.11751 6.57931,3.42145 9.87778,5.11986 6.02352,3.10156 13.88041,7.1818 17.42397,9.0486 1.04595,0.55103 2.05111,1.00187 2.23368,1.00187 0.18257,0 5.12116,-2.48049 10.97465,-5.5122 z m -39.88325,-12.82262 c -0.62538,-0.38131 -1.24204,-1.11158 -1.37036,-1.62282 -0.27506,-1.09593 -0.0329,-4.97218 0.69255,-11.0868 0.28776,-2.42535 0.6101,-5.28285 0.71632,-6.35 0.71514,-7.18502 1.01222,-9.46538 1.34611,-10.3328 0.81151,-2.10821 -0.45039,-2.01443 27.10521,-2.01443 h 25.25551 l 0.99959,1.04336 c 0.91752,0.95768 1.0365,1.39941 1.44899,5.37986 0.8022,7.74108 0.89194,8.55731 1.0391,9.45179 0.0798,0.48506 0.23381,1.67569 0.34221,2.64583 0.10841,0.97014 0.41603,3.66889 0.68361,5.99722 0.39996,3.48035 0.4053,4.42907 0.03,5.33376 -0.99089,2.38885 0.82304,2.2511 -29.62545,2.24964 -26.74195,-0.001 -27.55877,-0.0211 -28.66343,-0.69461 z m 52.4639,-5.38948 c -0.001,-0.24254 -0.31858,-3.13973 -0.70512,-6.4382 -0.69032,-5.89073 -0.78211,-6.68171 -1.26916,-10.93611 -0.13328,-1.16417 -0.24577,-2.3151 -0.24999,-2.55764 -0.006,-0.34338 -2.49295,-0.44097 -11.23775,-0.44097 h -11.2301 l -0.0112,6.96736 c -0.008,4.92007 -0.13749,7.13184 -0.44097,7.5271 -0.98991,1.28932 -1.7944,1.38054 -12.17548,1.38054 h -10.20461 l -0.22246,1.85208 c -0.12235,1.01865 -0.22384,2.1299 -0.22552,2.46945 -0.003,0.58194 1.37327,0.61736 23.98582,0.61736 18.95717,0 23.9884,-0.0925 23.98656,-0.44097 z m -19.88204,-3.46519 c -1.10944,-0.87269 -1.18644,-1.83415 -0.22397,-2.79662 0.65409,-0.65408 1.17593,-0.70555 7.15345,-0.70555 7.20064,0 8.016,0.2153 8.016,2.11666 0,1.89004 -0.83427,2.11667 -7.79203,2.11667 -5.76241,0 -6.29286,-0.0542 -7.15345,-0.73116 z m 0.56978,-8.62148 c -1.10182,-0.7845 -1.06856,-2.44548 0.0638,-3.18745 0.71516,-0.4686 1.80429,-0.54318 6.55834,-0.44911 5.50028,0.10884 5.72444,0.1421 6.37436,0.94564 0.80457,0.99476 0.83821,1.45272 0.17358,2.36294 -0.45499,0.6231 -1.03496,0.69417 -6.4382,0.78896 -4.99623,0.0876 -6.06407,0.0145 -6.73192,-0.46098 z m -11.45609,-2.90639 0.0974,-5.37986 h -7.59391 -7.59391 l -0.029,0.79375 c -0.016,0.43656 -0.0869,1.19062 -0.1577,1.67569 -0.27064,1.85483 -0.86968,7.26015 -0.87063,7.85593 -9.3e-4,0.58131 0.54786,0.6175 8.0247,0.52917 l 8.02569,-0.0948 z M 94.445955,147.77206 c 1.527328,-0.84036 5.15821,-2.7702 8.068625,-4.28853 2.91042,-1.51833 7.51417,-3.94778 10.23056,-5.39878 14.39056,-7.68692 17.65068,-9.24586 19.33528,-9.24586 1.83576,0 0.41538,-0.69358 25.11472,12.26361 13.27918,6.96622 14.46455,7.59793 14.91338,7.94773 0.24723,0.19267 0.52716,0.27265 0.62208,0.17774 0.28034,-0.28035 -30.69247,-63.019325 -31.52561,-63.858729 -0.13886,-0.139901 -1.04288,0.0047 -2.00894,0.321362 -1.29172,0.423396 -3.15659,0.581614 -7.04813,0.597972 -4.76239,0.02002 -6.54698,-0.194533 -8.79575,-1.057465 -0.31521,-0.120959 -2.43121,3.806206 -6.68071,12.399019 -3.42066,6.916831 -6.21938,12.640911 -6.21938,12.720181 0,0.0793 6.0477,0.14413 13.43932,0.14413 11.98606,0 13.5485,0.0645 14.44894,0.5964 2.09122,1.23531 2.20199,4.059 0.21738,5.54131 -0.96824,0.72318 -1.37261,0.74389 -16.40549,0.84014 l -15.41278,0.0987 -5.52876,11.1902 C 92.427343,146.53864 91.107933,149.3 91.397005,149.3 c 0.149595,0 1.521622,-0.68757 3.04895,-1.52794 z M 137.9833,73.304119 c 2.6058,-1.306223 3.99313,-2.408857 5.61935,-4.466175 3.33906,-4.224228 3.949,-9.868994 1.6426,-15.201592 -0.3082,-0.712574 -1.45099,-2.257576 -2.53953,-3.433338 -5.79037,-6.254288 -14.87196,-6.442408 -20.91193,-0.433179 -2.26315,2.251627 -3.48847,4.497674 -4.15087,7.608641 -1.19698,5.621572 1.86089,12.142636 7.14643,15.240174 2.50506,1.468058 4.48612,1.901816 8.07867,1.768845 2.62213,-0.09705 3.53214,-0.289787 5.11528,-1.083376 z"
     id="path2" /></svg>
